<svg width="62" height="66" viewBox="0 0 62 66" fill="none" xmlns="http://www.w3.org/2000/svg">
<g id="Group 17">
<g id="Group-1">
<path id="Path" d="M47.8875 27.8462V47.5073C47.8875 48.8314 46.7397 49.9051 45.3243 49.9051H17.1293C15.7139 49.9051 14.5661 48.8314 14.5661 47.5073C14.5661 28.9202 14.5644 32.4021 14.5717 27.8462H47.8875Z" fill="#D1E7FF"/>
<path id="Path_2" d="M47.8875 27.8462V32.3871C47.8875 33.3698 47.0454 34.1838 45.995 34.1878C45.9833 34.1879 16.4788 34.1879 16.4575 34.1878C15.4074 34.1835 14.566 33.3695 14.566 32.3871C14.566 31.0765 14.565 31.9813 14.5716 27.8462H47.8875Z" fill="#B9DCFF"/>
<path id="Path_3" d="M37.7147 39.1894V49.905H24.7385V39.1894C24.7385 37.8653 25.8864 36.7915 27.3017 36.7915H35.1515C36.5669 36.7915 37.7147 37.8653 37.7147 39.1894Z" fill="#E8F3FF"/>
<path id="Path_4" d="M49.8097 27.8461C49.8097 30.2452 47.7301 32.1923 45.164 32.1923C42.5984 32.1923 40.5182 30.2462 40.5182 27.8461C40.5182 30.2462 38.438 32.1923 35.8724 32.1923C33.3068 32.1923 31.2266 30.2462 31.2266 27.8461C31.2266 30.2462 29.1464 32.1923 26.5809 32.1923C24.0153 32.1923 21.9351 30.2462 21.9351 27.8461C21.9311 30.2305 19.8333 32.1923 17.2893 32.1923C14.7485 32.1923 12.6475 30.233 12.6435 27.8461C12.6435 24.0688 12.6325 24.3012 12.6716 24.1278C12.71 23.9577 12.4435 24.5602 16.4739 15.8581C16.6774 15.4197 17.1395 15.1357 17.6498 15.1357H44.8035C45.3137 15.1357 45.7759 15.4197 45.9794 15.8581C50.0127 24.5667 49.7432 23.9575 49.7817 24.1278C49.8207 24.3009 49.8097 24.0647 49.8097 27.8461Z" fill="#B9DCFF"/>
<path id="Path_5" d="M49.8099 27.8461C49.8099 30.2452 47.7303 32.1922 45.1641 32.1922C42.5985 32.1922 40.5184 30.2462 40.5184 27.8461C40.5184 30.2462 38.4382 32.1922 35.8726 32.1922C33.307 32.1922 31.2268 30.2462 31.2268 27.8461C31.2268 30.2462 29.1466 32.1922 26.581 32.1922C24.0154 32.1922 21.9352 30.2462 21.9352 27.8461C21.9312 30.2305 19.8334 32.1922 17.2895 32.1922C14.7486 32.1922 12.6477 30.2329 12.6437 27.8461C12.6373 24.0482 12.6383 24.2761 12.6717 24.1279H49.7819C49.8209 24.3009 49.8099 24.0648 49.8099 27.8461Z" fill="#A2D0FF"/>
<path id="Path_6" d="M44.4573 18.3391C36.321 17.2915 28.1096 18.6351 21.4681 23.3169C20.7205 23.8439 19.8093 24.1279 18.8733 24.1279H12.6716C12.7101 23.9578 12.4436 24.5603 16.474 15.8581C16.6774 15.4198 17.1396 15.1357 17.6498 15.1357H44.8036C45.3143 15.1357 45.7762 15.4195 45.9793 15.8578L46.1578 16.2431C46.6581 17.3232 45.7038 18.4996 44.4573 18.3391Z" fill="#D1E7FF"/>
<path id="Shape" fill-rule="evenodd" clip-rule="evenodd" d="M16.8088 24.7273C16.4549 24.7273 16.168 24.4588 16.168 24.1278C16.168 23.7966 16.4548 23.5283 16.8088 23.5283H48.8337L45.2239 15.7351H17.2294L13.2843 24.252V27.846C13.2877 29.9115 15.0845 31.5927 17.2893 31.5927C19.46 31.5927 21.2942 29.9511 21.2942 27.816C21.2942 27.4849 21.5812 27.2165 21.9351 27.2165C22.2889 27.2165 22.5758 27.4849 22.5758 27.816C22.5758 29.9693 24.4216 31.5927 26.5808 31.5927C28.7892 31.5927 30.5858 29.9119 30.5858 27.846C30.5858 27.5149 30.8727 27.2465 31.2266 27.2465C31.5805 27.2465 31.8674 27.5149 31.8674 27.846C31.8674 29.9119 33.664 31.5927 35.8724 31.5927C38.0807 31.5927 39.8774 29.9119 39.8774 27.846C39.8774 27.5149 40.1643 27.2465 40.5182 27.2465C40.872 27.2465 41.1589 27.5149 41.1589 27.846C41.1589 29.9119 42.9556 31.5927 45.1639 31.5927C47.3723 31.5927 49.1689 29.9119 49.1689 27.846C49.1689 27.5149 49.4558 27.2465 49.8097 27.2465C50.1636 27.2465 50.4505 27.5149 50.4505 27.846C50.4505 30.5731 48.079 32.7917 45.1639 32.7917C43.1613 32.7917 41.415 31.7443 40.5182 30.2045C38.511 33.6503 33.2333 33.6495 31.2266 30.2045C29.2183 33.6523 23.9383 33.6485 21.9337 30.2022C21.0362 31.7433 19.2901 32.7917 17.2893 32.7917C14.3788 32.7917 12.0073 30.5734 12.0027 27.8469C12.0027 24.1824 11.9857 24.0394 12.037 23.9278C12.0424 23.916 12.0485 23.9046 12.0556 23.8894L16.2207 14.8972C16.3222 14.6781 16.5533 14.5361 16.8087 14.5361H45.6445C45.9 14.5361 46.1309 14.678 46.2325 14.8972C50.3575 23.8025 50.4865 23.9996 50.4533 24.164C50.4505 24.178 50.4465 24.1918 50.4437 24.2107C50.4198 24.3687 50.3328 24.507 50.1996 24.6028C50.185 24.6133 50.1769 24.623 50.1681 24.6319C50.0229 24.7791 49.6759 24.7273 16.8088 24.7273ZM48.5282 47.5074V34.8435C48.5282 34.5123 48.2413 34.244 47.8874 34.244C47.5335 34.244 47.2466 34.5124 47.2466 34.8435V47.5074C47.2466 48.4991 46.3842 49.3059 45.3242 49.3059H31.8675V39.8641C31.8675 39.533 31.5806 39.2646 31.2267 39.2646C30.8728 39.2646 30.5859 39.533 30.5859 39.8641V49.3059H25.3794V39.1897C25.3794 38.1981 26.2418 37.3912 27.3018 37.3912H35.1516C36.2115 37.3912 37.0739 38.1981 37.0739 39.1897V46.908C37.0739 47.239 37.3609 47.5074 37.7147 47.5074C38.0686 47.5074 38.3555 47.239 38.3555 46.908V39.1897C38.3555 37.5369 36.9182 36.1923 35.1516 36.1923H27.3018C25.5351 36.1923 24.0978 37.5369 24.0978 39.1897V49.3059H17.1291C16.0691 49.3059 15.2068 48.4991 15.2068 47.5074V34.8435C15.2068 34.5124 14.9198 34.244 14.566 34.244C14.2121 34.244 13.9252 34.5124 13.9252 34.8435V47.5074C13.9252 49.1602 15.3625 50.5048 17.1291 50.5048H45.3242C47.0909 50.5048 48.5282 49.1602 48.5282 47.5074Z" fill="#007FFC"/>
</g>
<rect id="Rectangle Copy 2" x="0.5" y="0.5" width="61" height="65" rx="15.5" stroke="#E8F0FB"/>
</g>
</svg>
