<svg width="62" height="66" viewBox="0 0 62 66" fill="none" xmlns="http://www.w3.org/2000/svg">
<g id="Group 16">
<g id="Group 1">
<path id="Path" d="M45.0268 31.9342C45.7952 33.1791 44.8738 34.7427 43.3379 34.7981C37.7296 35.0035 32.0113 36.3138 26.62 38.8936L24.8373 39.856C24.8373 39.8636 24.8127 39.8166 29.1526 46.8776C29.5508 47.5237 29.3144 48.349 28.6246 48.7222L27.2185 49.4815C26.5287 49.854 25.6457 49.6329 25.2475 48.9868L20.9186 41.9727L20.216 42.3527C18.8355 43.0977 17.0705 42.6555 16.2733 41.3641L13.0268 36.1038C12.2304 34.8124 12.7031 33.1612 14.0836 32.4154L20.4876 28.9563C25.3817 25.9946 29.529 22.073 32.6378 17.4599C33.4575 16.2434 35.3651 16.2787 36.1335 17.5236L38.9112 22.0253C40.5072 21.1634 42.5487 21.6753 43.4701 23.1684C44.3914 24.6615 43.8442 26.5705 42.2482 27.4325L45.0268 31.9342Z" fill="#D1E7FF"/>
<path id="Path_2" d="M43.47 23.1684C44.3914 24.6614 43.8441 26.5705 42.2481 27.4325L38.9111 22.0253C40.5071 21.1633 42.5486 21.6753 43.47 23.1684Z" fill="#D1E7FF"/>
<path id="Path_3" d="M36.1335 17.5236C36.5168 18.1453 36.4922 18.9165 36.068 19.5144C32.6459 24.3382 28.0592 28.697 22.4497 32.0923L14.9465 36.145C14.4313 36.4238 14.0235 36.8098 13.7383 37.2558L13.0268 36.1038C12.2304 34.8123 12.7031 33.1611 14.0836 32.4153L20.4876 28.9562C25.3817 25.9945 29.529 22.073 32.6378 17.4599C33.4574 16.2434 35.3651 16.2787 36.1335 17.5236Z" fill="#E8F3FF"/>
<path id="Path_4" d="M20.4876 28.9563L26.62 38.8936C25.3911 39.557 21.4431 41.689 20.216 42.3527C18.8355 43.0977 17.0705 42.6555 16.2733 41.364L13.0268 36.1038C12.2304 34.8124 12.7031 33.1612 14.0836 32.4154L20.4876 28.9563Z" fill="#B9DCFF"/>
<path id="Path_5" d="M22.4296 32.1036C14.281 36.5044 14.821 36.1982 14.5581 36.3896C14.0631 36.7499 13.3405 36.6119 13.0267 36.1038C12.2303 34.8123 12.703 33.1611 14.0835 32.4154L20.4875 28.9563L22.4296 32.1036Z" fill="#D1E7FF"/>
<path id="Path_6" d="M26.0046 41.7554C23.7247 42.9904 25.4021 42.0816 22.0899 43.8698L20.9186 41.9728L24.8373 39.8569L26.0046 41.7554Z" fill="#B9DCFF"/>
<path id="Path_7" d="M43.2705 26.575C43.0061 26.9146 42.6624 27.2091 42.2481 27.4325L38.9111 22.0255C39.3254 21.8014 39.77 21.6709 40.2163 21.626C40.3842 21.8982 43.1239 26.3377 43.2705 26.575Z" fill="#B9DCFF"/>
<path id="front-image" fill-rule="evenodd" clip-rule="evenodd" d="M42.0516 17.3845L42.4561 15.9726C42.5477 15.6527 42.899 15.463 43.2411 15.5486C43.5831 15.6344 43.786 15.9632 43.6943 16.283L43.2899 17.6948C43.1984 18.0139 42.8478 18.2046 42.5048 18.1188C42.1629 18.0331 41.96 17.7044 42.0516 17.3845ZM43.0977 27.6093C45.5992 25.6979 44.7351 21.9178 41.6094 21.1344C40.7927 20.9297 39.9472 20.9723 39.1721 21.2485L36.6885 17.2242C35.6779 15.5865 33.1713 15.5431 32.0952 17.1399C29.0404 21.6726 24.9708 25.5277 20.1392 28.4532C19.8641 28.6195 19.7621 28.9631 19.9249 29.2427C19.9461 29.2791 22.6645 33.6836 23.6989 35.3596L23.7038 35.3675L24.0921 35.9967C24.269 36.2833 24.6608 36.3818 24.9677 36.2162C25.2742 36.0506 25.3792 35.6838 25.2023 35.3971L21.3445 29.146C25.9515 26.2648 30.0317 22.4503 33.1796 17.7795C33.7426 16.944 35.0513 16.9699 35.5783 17.8238L44.4713 32.2337C44.999 33.0887 44.3664 34.1609 43.313 34.1992C37.4036 34.4146 31.6179 35.8286 26.3281 38.3597C26.3068 38.3698 20.9148 41.2825 20.003 41.775L19.8951 41.8333C18.823 42.4124 17.4474 42.0675 16.8285 41.0646L13.582 35.8038C12.963 34.801 13.3317 33.514 14.4037 32.935L18.311 30.8245C18.6176 30.659 18.7226 30.2922 18.5456 30.0055C18.3687 29.7186 17.9765 29.6204 17.6701 29.786L13.7627 31.8964C12.0786 32.806 11.4995 34.8279 12.4718 36.4035L15.7184 41.6641C16.6909 43.2398 18.8521 43.7814 20.5362 42.8718L20.684 42.7919L24.6924 49.2869C25.2681 50.2198 26.5412 50.5393 27.539 50.0005L28.9449 49.2411C29.9424 48.7024 30.2836 47.5113 29.7077 46.5781L26.8668 41.975C26.6898 41.6882 26.2978 41.5899 25.9913 41.7555C25.6847 41.9211 25.5797 42.2878 25.7567 42.5746L28.5975 47.1777C28.8191 47.5368 28.6879 47.9952 28.3039 48.2025L26.8981 48.9619C26.5142 49.1692 26.0242 49.0463 25.8026 48.6872L21.7943 42.1923L26.9264 39.4203C31.9484 37.0199 37.5353 35.6099 43.363 35.3975C45.3827 35.3238 46.5907 33.2689 45.5815 31.634L43.0977 27.6093ZM42.9147 23.4679C43.5474 24.4932 43.3201 25.7656 42.4442 26.5503L39.8255 22.307C40.9735 21.992 42.2717 22.426 42.9147 23.4679ZM47.5253 21.6978L49.1837 20.802C49.4903 20.6364 49.5953 20.2697 49.4183 19.9829C49.2414 19.6962 48.8496 19.5978 48.5428 19.7635L46.8844 20.6592C46.5778 20.8248 46.4727 21.1916 46.6498 21.4783C46.8267 21.765 47.2186 21.8634 47.5253 21.6978ZM49.8159 27.6493C50.099 27.6493 50.3579 27.4726 50.4347 27.2047C50.5263 26.8848 50.3233 26.556 49.9814 26.4703L48.4722 26.092C48.1303 26.0065 47.7788 26.1961 47.6872 26.516C47.5955 26.8359 47.7985 27.1646 48.1404 27.2504C49.6131 27.6196 49.6985 27.6474 49.7844 27.6492C49.7942 27.6494 49.804 27.6493 49.8159 27.6493Z" fill="#007FFC"/>
</g>
<rect id="Rectangle" x="0.5" y="0.5" width="61" height="65" rx="15.5" stroke="#E8F0FB"/>
</g>
</svg>
