<svg width="62" height="66" viewBox="0 0 62 66" fill="none" xmlns="http://www.w3.org/2000/svg">
<g id="Group 18">
<g id="Group-1">
<path id="Path" d="M39.8309 16.1846C41.2466 16.1846 42.3947 17.2586 42.3947 18.583V48.5636C42.3947 49.888 41.2466 50.9621 39.8309 50.9621H22.2049C20.7892 50.9621 19.6411 49.888 19.6411 48.5636V18.583C19.6411 17.2586 20.7892 16.1846 22.2049 16.1846H39.8309Z" fill="#D1E7FF"/>
<path id="Path_2" d="M35.0491 29.0552C35.6628 29.0552 36.1772 29.4876 36.2437 30.058L37.101 37.4243C37.1787 38.0891 36.6219 38.67 35.9064 38.67H26.1288C25.4134 38.67 24.8565 38.0891 24.9343 37.4243L25.7915 30.058C25.858 29.4876 26.3724 29.0552 26.9861 29.0552H35.0491Z" fill="#B9DCFF"/>
<path id="Path_3" d="M39.952 16.1872C42.0139 16.2769 41.9045 19.1827 39.8404 19.1827H31.4986C26.7198 19.1827 22.8458 22.8068 22.8458 27.2774V50.9621H22.2049C20.789 50.9621 19.6411 49.8883 19.6411 48.5636V18.583C19.6411 17.2584 20.789 16.1846 22.2049 16.1846C22.3209 16.1846 39.858 16.1831 39.952 16.1872Z" fill="#E8F3FF"/>
<path id="Path_4" d="M42.3947 45.7156V48.5637C42.3947 49.8881 41.2466 50.9622 39.8309 50.9622H22.2049C20.7892 50.9622 19.6411 49.8881 19.6411 48.5637V45.7156H42.3947Z" fill="#B9DCFF"/>
<path id="Path_5" d="M22.8458 45.7156V48.5726C22.8458 50.5259 19.6411 50.6257 19.6411 48.5637V45.7156H22.8458Z" fill="#D1E7FF"/>
<path id="Path_6" d="M35.0494 31.3037C31.1671 31.3037 27.9937 34.0379 27.5839 37.5602C27.5105 38.1916 26.9404 38.67 26.2614 38.67H26.1288C25.4134 38.67 24.8565 38.0891 24.9343 37.4243L25.7915 30.058C25.858 29.4876 26.3724 29.0552 26.9861 29.0552H35.0492C35.6624 29.0552 36.1774 29.4872 36.2437 30.0576C36.3213 30.7241 35.7635 31.3037 35.0494 31.3037Z" fill="#D1E7FF"/>
<path id="Shape" fill-rule="evenodd" clip-rule="evenodd" d="M39.8307 15.585H22.2047C20.4376 15.585 19 16.9299 19 18.583V48.5636C19 50.2168 20.4376 51.5617 22.2047 51.5617H39.8307C41.5978 51.5617 43.0354 50.2168 43.0354 48.5636V18.583C43.0354 16.9299 41.5978 15.585 39.8307 15.585ZM39.8307 50.3625H22.2047C21.1445 50.3625 20.2819 49.5556 20.2819 48.5636V18.583C20.2819 17.5911 21.1445 16.7842 22.2047 16.7842H39.8307C40.8909 16.7842 41.7535 17.5911 41.7535 18.583V45.1159H23.4065C23.0525 45.1159 22.7656 45.3843 22.7656 45.7155C22.7656 46.0466 23.0525 46.3151 23.4065 46.3151H41.7535V48.5636C41.7535 49.5556 40.8909 50.3625 39.8307 50.3625ZM31.8189 48.7885C32.1728 48.7885 32.4598 48.52 32.4598 48.1889C32.4598 47.8577 32.1728 47.5893 31.8189 47.5893H30.2165C29.8626 47.5893 29.5756 47.8577 29.5756 48.1889C29.5756 48.52 29.8626 48.7885 30.2165 48.7885H31.8189ZM26.1289 39.2697H35.9065C37.0027 39.2697 37.857 38.3781 37.7384 37.3592L36.8812 29.9933C36.7792 29.1169 35.9916 28.456 35.0493 28.456H34.456V27.3459C34.4559 25.5723 32.9135 24.1294 31.0177 24.1294C29.1219 24.1294 27.5795 25.5723 27.5795 27.3459V28.4559H26.9862C26.0438 28.4559 25.2563 29.1168 25.1543 29.9933L24.2971 37.3592C24.1784 38.3786 25.0334 39.2697 26.1289 39.2697ZM26.4285 30.1231L25.5714 37.489C25.5352 37.8002 25.795 38.0704 26.1289 38.0704H35.9063C36.2418 38.0704 36.4999 37.799 36.4639 37.489L35.6067 30.1231C35.5756 29.8564 35.336 29.6552 35.0492 29.6552H34.4558V30.5908C34.4558 30.9219 34.1688 31.1904 33.8149 31.1904C33.4609 31.1904 33.1739 30.9219 33.1739 30.5908V29.6552H30.4015C30.0476 29.6552 29.7606 29.3868 29.7606 29.0556C29.7606 28.7245 30.0476 28.456 30.4015 28.456H33.1739V27.3459C33.1739 26.2336 32.2067 25.3287 31.0176 25.3287C29.8286 25.3287 28.8613 26.2336 28.8613 27.3459V30.5908C28.8613 30.9219 28.5743 31.1904 28.2204 31.1904C27.8664 31.1904 27.5794 30.9219 27.5794 30.5908V29.6552H26.9861C26.6993 29.6552 26.4596 29.8563 26.4285 30.1231Z" fill="#007FFC"/>
</g>
<rect id="Rectangle Copy 3" x="0.5" y="0.5" width="61" height="65" rx="15.5" stroke="#E8F0FB"/>
</g>
</svg>
